<?xml version="1.0" encoding="UTF-8" standalone="no"?>
<!DOCTYPE svg PUBLIC "-//W3C//DTD SVG 1.1//EN"
 "http://www.w3.org/Graphics/SVG/1.1/DTD/svg11.dtd">
<!-- Generated by graphviz version 2.38.0 (20140413.2041)
 -->
<!-- Title: %3 Pages: 1 -->
<svg width="1251pt" height="1196pt"
 viewBox="0.00 0.00 1250.95 1196.00" xmlns="http://www.w3.org/2000/svg" xmlns:xlink="http://www.w3.org/1999/xlink">
<g id="graph0" class="graph" transform="scale(1 1) rotate(0) translate(4 1192)">
<title>%3</title>
<polygon fill="white" stroke="none" points="-4,4 -4,-1192 1246.95,-1192 1246.95,4 -4,4"/>
<!-- t -->
<g id="node1" class="node"><title>t</title>
<ellipse fill="none" stroke="black" cx="1129" cy="-1170" rx="48.1917" ry="18"/>
<text text-anchor="middle" x="1129" y="-1166.3" font-family="mono" font-size="14.00">cc 11 5</text>
</g>
<!-- t0 -->
<g id="node2" class="node"><title>t0</title>
<ellipse fill="none" stroke="black" cx="1069" cy="-1098" rx="48.1917" ry="18"/>
<text text-anchor="middle" x="1069" y="-1094.3" font-family="mono" font-size="14.00">cc 11 4</text>
</g>
<!-- t&#45;&#45;t0 -->
<g id="edge1" class="edge"><title>t&#45;&#45;t0</title>
<path fill="none" stroke="black" d="M1115.08,-1152.76C1105.53,-1141.62 1092.88,-1126.87 1083.26,-1115.63"/>
</g>
<!-- t1 -->
<g id="node3" class="node"><title>t1</title>
<ellipse fill="none" stroke="black" cx="1189" cy="-1098" rx="53.8905" ry="18"/>
<text text-anchor="middle" x="1189" y="-1094.3" font-family="mono" font-size="14.00">cc &#45;39 5</text>
</g>
<!-- t&#45;&#45;t1 -->
<g id="edge2" class="edge"><title>t&#45;&#45;t1</title>
<path fill="none" stroke="black" d="M1142.92,-1152.76C1152.47,-1141.62 1165.12,-1126.87 1174.74,-1115.63"/>
</g>
<!-- t00 -->
<g id="node4" class="node"><title>t00</title>
<ellipse fill="none" stroke="black" cx="960" cy="-1026" rx="48.1917" ry="18"/>
<text text-anchor="middle" x="960" y="-1022.3" font-family="mono" font-size="14.00">cc 11 3</text>
</g>
<!-- t0&#45;&#45;t00 -->
<g id="edge3" class="edge"><title>t0&#45;&#45;t00</title>
<path fill="none" stroke="black" d="M1045.88,-1082.15C1027.39,-1070.28 1001.57,-1053.7 983.083,-1041.82"/>
</g>
<!-- t01 -->
<g id="node5" class="node"><title>t01</title>
<ellipse fill="none" stroke="black" cx="1080" cy="-1026" rx="53.8905" ry="18"/>
<text text-anchor="middle" x="1080" y="-1022.3" font-family="mono" font-size="14.00">cc &#45;14 4</text>
</g>
<!-- t0&#45;&#45;t01 -->
<g id="edge4" class="edge"><title>t0&#45;&#45;t01</title>
<path fill="none" stroke="black" d="M1071.72,-1079.7C1073.42,-1068.85 1075.61,-1054.92 1077.31,-1044.1"/>
</g>
<!-- t11 -->
<g id="node83" class="node"><title>t11</title>
<ellipse fill="none" stroke="black" cx="1189" cy="-1026" rx="27" ry="18"/>
<text text-anchor="middle" x="1189" y="-1022.3" font-family="mono" font-size="14.00">0</text>
</g>
<!-- t1&#45;&#45;t11 -->
<g id="edge82" class="edge"><title>t1&#45;&#45;t11</title>
<path fill="none" stroke="black" d="M1189,-1079.7C1189,-1068.85 1189,-1054.92 1189,-1044.1"/>
</g>
<!-- t000 -->
<g id="node6" class="node"><title>t000</title>
<ellipse fill="none" stroke="black" cx="586" cy="-954" rx="48.1917" ry="18"/>
<text text-anchor="middle" x="586" y="-950.3" font-family="mono" font-size="14.00">cc 11 2</text>
</g>
<!-- t00&#45;&#45;t000 -->
<g id="edge5" class="edge"><title>t00&#45;&#45;t000</title>
<path fill="none" stroke="black" d="M917.824,-1017.11C845.804,-1003.63 699.937,-976.325 628.021,-962.865"/>
</g>
<!-- t001 -->
<g id="node7" class="node"><title>t001</title>
<ellipse fill="none" stroke="black" cx="976" cy="-954" rx="42.7926" ry="18"/>
<text text-anchor="middle" x="976" y="-950.3" font-family="mono" font-size="14.00">cc 1 3</text>
</g>
<!-- t00&#45;&#45;t001 -->
<g id="edge6" class="edge"><title>t00&#45;&#45;t001</title>
<path fill="none" stroke="black" d="M963.873,-1008.05C966.352,-997.211 969.558,-983.183 972.051,-972.275"/>
</g>
<!-- t011 -->
<g id="node82" class="node"><title>t011</title>
<ellipse fill="none" stroke="black" cx="1080" cy="-954" rx="27" ry="18"/>
<text text-anchor="middle" x="1080" y="-950.3" font-family="mono" font-size="14.00">0</text>
</g>
<!-- t01&#45;&#45;t011 -->
<g id="edge81" class="edge"><title>t01&#45;&#45;t011</title>
<path fill="none" stroke="black" d="M1080,-1007.7C1080,-996.846 1080,-982.917 1080,-972.104"/>
</g>
<!-- t0000 -->
<g id="node8" class="node"><title>t0000</title>
<ellipse fill="none" stroke="black" cx="207" cy="-882" rx="48.1917" ry="18"/>
<text text-anchor="middle" x="207" y="-878.3" font-family="mono" font-size="14.00">cc 11 1</text>
</g>
<!-- t000&#45;&#45;t0000 -->
<g id="edge7" class="edge"><title>t000&#45;&#45;t0000</title>
<path fill="none" stroke="black" d="M543.627,-945.174C470.612,-931.688 321.927,-904.227 249.1,-890.776"/>
</g>
<!-- t0001 -->
<g id="node9" class="node"><title>t0001</title>
<ellipse fill="none" stroke="black" cx="586" cy="-882" rx="42.7926" ry="18"/>
<text text-anchor="middle" x="586" y="-878.3" font-family="mono" font-size="14.00">cc 6 2</text>
</g>
<!-- t000&#45;&#45;t0001 -->
<g id="edge8" class="edge"><title>t000&#45;&#45;t0001</title>
<path fill="none" stroke="black" d="M586,-935.697C586,-924.846 586,-910.917 586,-900.104"/>
</g>
<!-- t0010 -->
<g id="node72" class="node"><title>t0010</title>
<ellipse fill="none" stroke="black" cx="976" cy="-882" rx="42.7926" ry="18"/>
<text text-anchor="middle" x="976" y="-878.3" font-family="mono" font-size="14.00">cc 1 2</text>
</g>
<!-- t001&#45;&#45;t0010 -->
<g id="edge71" class="edge"><title>t001&#45;&#45;t0010</title>
<path fill="none" stroke="black" d="M976,-935.697C976,-924.846 976,-910.917 976,-900.104"/>
</g>
<!-- t0011 -->
<g id="node73" class="node"><title>t0011</title>
<ellipse fill="none" stroke="black" cx="1131" cy="-882" rx="48.1917" ry="18"/>
<text text-anchor="middle" x="1131" y="-878.3" font-family="mono" font-size="14.00">cc &#45;9 3</text>
</g>
<!-- t001&#45;&#45;t0011 -->
<g id="edge72" class="edge"><title>t001&#45;&#45;t0011</title>
<path fill="none" stroke="black" d="M1004.07,-940.324C1031.64,-927.874 1073.53,-908.956 1101.56,-896.296"/>
</g>
<!-- t00000 -->
<g id="node10" class="node"><title>t00000</title>
<ellipse fill="none" stroke="black" cx="49" cy="-810" rx="48.1917" ry="18"/>
<text text-anchor="middle" x="49" y="-806.3" font-family="mono" font-size="14.00">cc 11 0</text>
</g>
<!-- t0000&#45;&#45;t00000 -->
<g id="edge9" class="edge"><title>t0000&#45;&#45;t00000</title>
<path fill="none" stroke="black" d="M177.281,-867.834C149.123,-855.358 107.056,-836.721 78.8535,-824.226"/>
</g>
<!-- t00001 -->
<g id="node11" class="node"><title>t00001</title>
<ellipse fill="none" stroke="black" cx="207" cy="-810" rx="48.1917" ry="18"/>
<text text-anchor="middle" x="207" y="-806.3" font-family="mono" font-size="14.00">cc 10 1</text>
</g>
<!-- t0000&#45;&#45;t00001 -->
<g id="edge10" class="edge"><title>t0000&#45;&#45;t00001</title>
<path fill="none" stroke="black" d="M207,-863.697C207,-852.846 207,-838.917 207,-828.104"/>
</g>
<!-- t00010 -->
<g id="node44" class="node"><title>t00010</title>
<ellipse fill="none" stroke="black" cx="491" cy="-810" rx="42.7926" ry="18"/>
<text text-anchor="middle" x="491" y="-806.3" font-family="mono" font-size="14.00">cc 6 1</text>
</g>
<!-- t0001&#45;&#45;t00010 -->
<g id="edge43" class="edge"><title>t0001&#45;&#45;t00010</title>
<path fill="none" stroke="black" d="M565.386,-865.811C549.343,-853.989 527.197,-837.671 511.247,-825.919"/>
</g>
<!-- t00011 -->
<g id="node45" class="node"><title>t00011</title>
<ellipse fill="none" stroke="black" cx="684" cy="-810" rx="42.7926" ry="18"/>
<text text-anchor="middle" x="684" y="-806.3" font-family="mono" font-size="14.00">cc 1 2</text>
</g>
<!-- t0001&#45;&#45;t00011 -->
<g id="edge44" class="edge"><title>t0001&#45;&#45;t00011</title>
<path fill="none" stroke="black" d="M606.783,-866.155C623.414,-854.276 646.624,-837.697 663.247,-825.824"/>
</g>
<!-- t000001 -->
<g id="node12" class="node"><title>t000001</title>
<ellipse fill="none" stroke="black" cx="27" cy="-738" rx="27" ry="18"/>
<text text-anchor="middle" x="27" y="-734.3" font-family="mono" font-size="14.00">0</text>
</g>
<!-- t00000&#45;&#45;t000001 -->
<g id="edge11" class="edge"><title>t00000&#45;&#45;t000001</title>
<path fill="none" stroke="black" d="M43.6744,-792.055C40.2155,-781.049 35.7257,-766.764 32.2765,-755.789"/>
</g>
<!-- t000010 -->
<g id="node13" class="node"><title>t000010</title>
<ellipse fill="none" stroke="black" cx="120" cy="-738" rx="48.1917" ry="18"/>
<text text-anchor="middle" x="120" y="-734.3" font-family="mono" font-size="14.00">cc 10 0</text>
</g>
<!-- t00001&#45;&#45;t000010 -->
<g id="edge12" class="edge"><title>t00001&#45;&#45;t000010</title>
<path fill="none" stroke="black" d="M187.692,-793.465C173.375,-781.945 153.931,-766.301 139.555,-754.734"/>
</g>
<!-- t000011 -->
<g id="node14" class="node"><title>t000011</title>
<ellipse fill="none" stroke="black" cx="229" cy="-738" rx="42.7926" ry="18"/>
<text text-anchor="middle" x="229" y="-734.3" font-family="mono" font-size="14.00">cc 9 1</text>
</g>
<!-- t00001&#45;&#45;t000011 -->
<g id="edge13" class="edge"><title>t00001&#45;&#45;t000011</title>
<path fill="none" stroke="black" d="M212.326,-792.055C215.734,-781.211 220.142,-767.183 223.571,-756.275"/>
</g>
<!-- t0000101 -->
<g id="node15" class="node"><title>t0000101</title>
<ellipse fill="none" stroke="black" cx="58" cy="-666" rx="27" ry="18"/>
<text text-anchor="middle" x="58" y="-662.3" font-family="mono" font-size="14.00">0</text>
</g>
<!-- t000010&#45;&#45;t0000101 -->
<g id="edge14" class="edge"><title>t000010&#45;&#45;t0000101</title>
<path fill="none" stroke="black" d="M105.62,-720.765C95.3177,-709.133 81.5382,-693.575 71.4531,-682.189"/>
</g>
<!-- t0000110 -->
<g id="node16" class="node"><title>t0000110</title>
<ellipse fill="none" stroke="black" cx="146" cy="-666" rx="42.7926" ry="18"/>
<text text-anchor="middle" x="146" y="-662.3" font-family="mono" font-size="14.00">cc 9 0</text>
</g>
<!-- t000011&#45;&#45;t0000110 -->
<g id="edge15" class="edge"><title>t000011&#45;&#45;t0000110</title>
<path fill="none" stroke="black" d="M210.58,-721.465C196.825,-709.865 178.111,-694.082 164.369,-682.492"/>
</g>
<!-- t0000111 -->
<g id="node17" class="node"><title>t0000111</title>
<ellipse fill="none" stroke="black" cx="250" cy="-666" rx="42.7926" ry="18"/>
<text text-anchor="middle" x="250" y="-662.3" font-family="mono" font-size="14.00">cc 8 1</text>
</g>
<!-- t000011&#45;&#45;t0000111 -->
<g id="edge16" class="edge"><title>t000011&#45;&#45;t0000111</title>
<path fill="none" stroke="black" d="M234.084,-720.055C237.337,-709.211 241.545,-695.183 244.817,-684.275"/>
</g>
<!-- t00001101 -->
<g id="node18" class="node"><title>t00001101</title>
<ellipse fill="none" stroke="black" cx="141" cy="-594" rx="27" ry="18"/>
<text text-anchor="middle" x="141" y="-590.3" font-family="mono" font-size="14.00">0</text>
</g>
<!-- t0000110&#45;&#45;t00001101 -->
<g id="edge17" class="edge"><title>t0000110&#45;&#45;t00001101</title>
<path fill="none" stroke="black" d="M144.764,-647.697C143.989,-636.846 142.994,-622.917 142.222,-612.104"/>
</g>
<!-- t00001110 -->
<g id="node19" class="node"><title>t00001110</title>
<ellipse fill="none" stroke="black" cx="229" cy="-594" rx="42.7926" ry="18"/>
<text text-anchor="middle" x="229" y="-590.3" font-family="mono" font-size="14.00">cc 8 0</text>
</g>
<!-- t0000111&#45;&#45;t00001110 -->
<g id="edge18" class="edge"><title>t0000111&#45;&#45;t00001110</title>
<path fill="none" stroke="black" d="M244.916,-648.055C241.663,-637.211 237.455,-623.183 234.183,-612.275"/>
</g>
<!-- t00001111 -->
<g id="node20" class="node"><title>t00001111</title>
<ellipse fill="none" stroke="black" cx="333" cy="-594" rx="42.7926" ry="18"/>
<text text-anchor="middle" x="333" y="-590.3" font-family="mono" font-size="14.00">cc 7 1</text>
</g>
<!-- t0000111&#45;&#45;t00001111 -->
<g id="edge19" class="edge"><title>t0000111&#45;&#45;t00001111</title>
<path fill="none" stroke="black" d="M268.42,-649.465C282.175,-637.865 300.889,-622.082 314.631,-610.492"/>
</g>
<!-- t000011101 -->
<g id="node21" class="node"><title>t000011101</title>
<ellipse fill="none" stroke="black" cx="229" cy="-522" rx="27" ry="18"/>
<text text-anchor="middle" x="229" y="-518.3" font-family="mono" font-size="14.00">0</text>
</g>
<!-- t00001110&#45;&#45;t000011101 -->
<g id="edge20" class="edge"><title>t00001110&#45;&#45;t000011101</title>
<path fill="none" stroke="black" d="M229,-575.697C229,-564.846 229,-550.917 229,-540.104"/>
</g>
<!-- t000011110 -->
<g id="node22" class="node"><title>t000011110</title>
<ellipse fill="none" stroke="black" cx="317" cy="-522" rx="42.7926" ry="18"/>
<text text-anchor="middle" x="317" y="-518.3" font-family="mono" font-size="14.00">cc 7 0</text>
</g>
<!-- t00001111&#45;&#45;t000011110 -->
<g id="edge21" class="edge"><title>t00001111&#45;&#45;t000011110</title>
<path fill="none" stroke="black" d="M329.127,-576.055C326.648,-565.211 323.442,-551.183 320.949,-540.275"/>
</g>
<!-- t000011111 -->
<g id="node23" class="node"><title>t000011111</title>
<ellipse fill="none" stroke="black" cx="421" cy="-522" rx="42.7926" ry="18"/>
<text text-anchor="middle" x="421" y="-518.3" font-family="mono" font-size="14.00">cc 6 1</text>
</g>
<!-- t00001111&#45;&#45;t000011111 -->
<g id="edge22" class="edge"><title>t00001111&#45;&#45;t000011111</title>
<path fill="none" stroke="black" d="M352.095,-577.811C366.855,-566.07 387.191,-549.893 401.943,-538.159"/>
</g>
<!-- t0000111101 -->
<g id="node24" class="node"><title>t0000111101</title>
<ellipse fill="none" stroke="black" cx="317" cy="-450" rx="27" ry="18"/>
<text text-anchor="middle" x="317" y="-446.3" font-family="mono" font-size="14.00">0</text>
</g>
<!-- t000011110&#45;&#45;t0000111101 -->
<g id="edge23" class="edge"><title>t000011110&#45;&#45;t0000111101</title>
<path fill="none" stroke="black" d="M317,-503.697C317,-492.846 317,-478.917 317,-468.104"/>
</g>
<!-- t0000111110 -->
<g id="node25" class="node"><title>t0000111110</title>
<ellipse fill="none" stroke="black" cx="406" cy="-450" rx="42.7926" ry="18"/>
<text text-anchor="middle" x="406" y="-446.3" font-family="mono" font-size="14.00">cc 6 0</text>
</g>
<!-- t000011111&#45;&#45;t0000111110 -->
<g id="edge24" class="edge"><title>t000011111&#45;&#45;t0000111110</title>
<path fill="none" stroke="black" d="M417.369,-504.055C415.045,-493.211 412.039,-479.183 409.702,-468.275"/>
</g>
<!-- t0000111111 -->
<g id="node26" class="node"><title>t0000111111</title>
<ellipse fill="none" stroke="black" cx="510" cy="-450" rx="42.7926" ry="18"/>
<text text-anchor="middle" x="510" y="-446.3" font-family="mono" font-size="14.00">cc 5 1</text>
</g>
<!-- t000011111&#45;&#45;t0000111111 -->
<g id="edge25" class="edge"><title>t000011111&#45;&#45;t0000111111</title>
<path fill="none" stroke="black" d="M440.312,-505.811C455.24,-494.07 475.807,-477.893 490.726,-466.159"/>
</g>
<!-- t00001111101 -->
<g id="node27" class="node"><title>t00001111101</title>
<ellipse fill="none" stroke="black" cx="406" cy="-378" rx="27" ry="18"/>
<text text-anchor="middle" x="406" y="-374.3" font-family="mono" font-size="14.00">0</text>
</g>
<!-- t0000111110&#45;&#45;t00001111101 -->
<g id="edge26" class="edge"><title>t0000111110&#45;&#45;t00001111101</title>
<path fill="none" stroke="black" d="M406,-431.697C406,-420.846 406,-406.917 406,-396.104"/>
</g>
<!-- t00001111110 -->
<g id="node28" class="node"><title>t00001111110</title>
<ellipse fill="none" stroke="black" cx="496" cy="-378" rx="42.7926" ry="18"/>
<text text-anchor="middle" x="496" y="-374.3" font-family="mono" font-size="14.00">cc 5 0</text>
</g>
<!-- t0000111111&#45;&#45;t00001111110 -->
<g id="edge27" class="edge"><title>t0000111111&#45;&#45;t00001111110</title>
<path fill="none" stroke="black" d="M506.611,-432.055C504.442,-421.211 501.637,-407.183 499.455,-396.275"/>
</g>
<!-- t00001111111 -->
<g id="node29" class="node"><title>t00001111111</title>
<ellipse fill="none" stroke="black" cx="600" cy="-378" rx="42.7926" ry="18"/>
<text text-anchor="middle" x="600" y="-374.3" font-family="mono" font-size="14.00">cc 4 1</text>
</g>
<!-- t0000111111&#45;&#45;t00001111111 -->
<g id="edge28" class="edge"><title>t0000111111&#45;&#45;t00001111111</title>
<path fill="none" stroke="black" d="M529.529,-433.811C544.625,-422.07 565.423,-405.893 580.509,-394.159"/>
</g>
<!-- t000011111101 -->
<g id="node30" class="node"><title>t000011111101</title>
<ellipse fill="none" stroke="black" cx="496" cy="-306" rx="27" ry="18"/>
<text text-anchor="middle" x="496" y="-302.3" font-family="mono" font-size="14.00">0</text>
</g>
<!-- t00001111110&#45;&#45;t000011111101 -->
<g id="edge29" class="edge"><title>t00001111110&#45;&#45;t000011111101</title>
<path fill="none" stroke="black" d="M496,-359.697C496,-348.846 496,-334.917 496,-324.104"/>
</g>
<!-- t000011111110 -->
<g id="node31" class="node"><title>t000011111110</title>
<ellipse fill="none" stroke="black" cx="587" cy="-306" rx="42.7926" ry="18"/>
<text text-anchor="middle" x="587" y="-302.3" font-family="mono" font-size="14.00">cc 4 0</text>
</g>
<!-- t00001111111&#45;&#45;t000011111110 -->
<g id="edge30" class="edge"><title>t00001111111&#45;&#45;t000011111110</title>
<path fill="none" stroke="black" d="M596.787,-359.697C594.771,-348.846 592.185,-334.917 590.177,-324.104"/>
</g>
<!-- t000011111111 -->
<g id="node32" class="node"><title>t000011111111</title>
<ellipse fill="none" stroke="black" cx="691" cy="-306" rx="42.7926" ry="18"/>
<text text-anchor="middle" x="691" y="-302.3" font-family="mono" font-size="14.00">cc 3 1</text>
</g>
<!-- t00001111111&#45;&#45;t000011111111 -->
<g id="edge31" class="edge"><title>t00001111111&#45;&#45;t000011111111</title>
<path fill="none" stroke="black" d="M619.746,-361.811C635.009,-350.07 656.039,-333.893 671.293,-322.159"/>
</g>
<!-- t0000111111101 -->
<g id="node33" class="node"><title>t0000111111101</title>
<ellipse fill="none" stroke="black" cx="587" cy="-234" rx="27" ry="18"/>
<text text-anchor="middle" x="587" y="-230.3" font-family="mono" font-size="14.00">0</text>
</g>
<!-- t000011111110&#45;&#45;t0000111111101 -->
<g id="edge32" class="edge"><title>t000011111110&#45;&#45;t0000111111101</title>
<path fill="none" stroke="black" d="M587,-287.697C587,-276.846 587,-262.917 587,-252.104"/>
</g>
<!-- t0000111111110 -->
<g id="node34" class="node"><title>t0000111111110</title>
<ellipse fill="none" stroke="black" cx="683" cy="-234" rx="42.7926" ry="18"/>
<text text-anchor="middle" x="683" y="-230.3" font-family="mono" font-size="14.00">cc 3 0</text>
</g>
<!-- t000011111111&#45;&#45;t0000111111110 -->
<g id="edge33" class="edge"><title>t000011111111&#45;&#45;t0000111111110</title>
<path fill="none" stroke="black" d="M689.022,-287.697C687.782,-276.846 686.19,-262.917 684.955,-252.104"/>
</g>
<!-- t0000111111111 -->
<g id="node35" class="node"><title>t0000111111111</title>
<ellipse fill="none" stroke="black" cx="787" cy="-234" rx="42.7926" ry="18"/>
<text text-anchor="middle" x="787" y="-230.3" font-family="mono" font-size="14.00">cc 2 1</text>
</g>
<!-- t000011111111&#45;&#45;t0000111111111 -->
<g id="edge34" class="edge"><title>t000011111111&#45;&#45;t0000111111111</title>
<path fill="none" stroke="black" d="M711.359,-290.155C727.541,-278.356 750.079,-261.921 766.339,-250.065"/>
</g>
<!-- t00001111111101 -->
<g id="node36" class="node"><title>t00001111111101</title>
<ellipse fill="none" stroke="black" cx="683" cy="-162" rx="27" ry="18"/>
<text text-anchor="middle" x="683" y="-158.3" font-family="mono" font-size="14.00">0</text>
</g>
<!-- t0000111111110&#45;&#45;t00001111111101 -->
<g id="edge35" class="edge"><title>t0000111111110&#45;&#45;t00001111111101</title>
<path fill="none" stroke="black" d="M683,-215.697C683,-204.846 683,-190.917 683,-180.104"/>
</g>
<!-- t00001111111110 -->
<g id="node37" class="node"><title>t00001111111110</title>
<ellipse fill="none" stroke="black" cx="779" cy="-162" rx="42.7926" ry="18"/>
<text text-anchor="middle" x="779" y="-158.3" font-family="mono" font-size="14.00">cc 2 0</text>
</g>
<!-- t0000111111111&#45;&#45;t00001111111110 -->
<g id="edge36" class="edge"><title>t0000111111111&#45;&#45;t00001111111110</title>
<path fill="none" stroke="black" d="M785.022,-215.697C783.782,-204.846 782.19,-190.917 780.955,-180.104"/>
</g>
<!-- t00001111111111 -->
<g id="node38" class="node"><title>t00001111111111</title>
<ellipse fill="none" stroke="black" cx="883" cy="-162" rx="42.7926" ry="18"/>
<text text-anchor="middle" x="883" y="-158.3" font-family="mono" font-size="14.00">cc 1 1</text>
</g>
<!-- t0000111111111&#45;&#45;t00001111111111 -->
<g id="edge37" class="edge"><title>t0000111111111&#45;&#45;t00001111111111</title>
<path fill="none" stroke="black" d="M807.359,-218.155C823.541,-206.356 846.079,-189.921 862.339,-178.065"/>
</g>
<!-- t000011111111101 -->
<g id="node39" class="node"><title>t000011111111101</title>
<ellipse fill="none" stroke="black" cx="779" cy="-90" rx="27" ry="18"/>
<text text-anchor="middle" x="779" y="-86.3" font-family="mono" font-size="14.00">0</text>
</g>
<!-- t00001111111110&#45;&#45;t000011111111101 -->
<g id="edge38" class="edge"><title>t00001111111110&#45;&#45;t000011111111101</title>
<path fill="none" stroke="black" d="M779,-143.697C779,-132.846 779,-118.917 779,-108.104"/>
</g>
<!-- t000011111111110 -->
<g id="node40" class="node"><title>t000011111111110</title>
<ellipse fill="none" stroke="black" cx="875" cy="-90" rx="42.7926" ry="18"/>
<text text-anchor="middle" x="875" y="-86.3" font-family="mono" font-size="14.00">cc 1 0</text>
</g>
<!-- t00001111111111&#45;&#45;t000011111111110 -->
<g id="edge39" class="edge"><title>t00001111111111&#45;&#45;t000011111111110</title>
<path fill="none" stroke="black" d="M881.022,-143.697C879.782,-132.846 878.19,-118.917 876.955,-108.104"/>
</g>
<!-- t000011111111111 -->
<g id="node41" class="node"><title>t000011111111111</title>
<ellipse fill="none" stroke="black" cx="979" cy="-90" rx="42.7926" ry="18"/>
<text text-anchor="middle" x="979" y="-86.3" font-family="mono" font-size="14.00">cc 0 1</text>
</g>
<!-- t00001111111111&#45;&#45;t000011111111111 -->
<g id="edge40" class="edge"><title>t00001111111111&#45;&#45;t000011111111111</title>
<path fill="none" stroke="black" d="M903.359,-146.155C919.541,-134.356 942.079,-117.921 958.339,-106.065"/>
</g>
<!-- t0000111111111101 -->
<g id="node42" class="node"><title>t0000111111111101</title>
<ellipse fill="none" stroke="black" cx="875" cy="-18" rx="27" ry="18"/>
<text text-anchor="middle" x="875" y="-14.3" font-family="mono" font-size="14.00">0</text>
</g>
<!-- t000011111111110&#45;&#45;t0000111111111101 -->
<g id="edge41" class="edge"><title>t000011111111110&#45;&#45;t0000111111111101</title>
<path fill="none" stroke="black" d="M875,-71.6966C875,-60.8463 875,-46.9167 875,-36.1043"/>
</g>
<!-- t0000111111111110 -->
<g id="node43" class="node"><title>t0000111111111110</title>
<ellipse fill="none" stroke="black" cx="979" cy="-18" rx="27" ry="18"/>
<text text-anchor="middle" x="979" y="-14.3" font-family="mono" font-size="14.00">1</text>
</g>
<!-- t000011111111111&#45;&#45;t0000111111111110 -->
<g id="edge42" class="edge"><title>t000011111111111&#45;&#45;t0000111111111110</title>
<path fill="none" stroke="black" d="M979,-71.6966C979,-60.8463 979,-46.9167 979,-36.1043"/>
</g>
<!-- t000100 -->
<g id="node46" class="node"><title>t000100</title>
<ellipse fill="none" stroke="black" cx="369" cy="-738" rx="42.7926" ry="18"/>
<text text-anchor="middle" x="369" y="-734.3" font-family="mono" font-size="14.00">cc 6 0</text>
</g>
<!-- t00010&#45;&#45;t000100 -->
<g id="edge45" class="edge"><title>t00010&#45;&#45;t000100</title>
<path fill="none" stroke="black" d="M466.605,-795.003C445.327,-782.794 414.619,-765.175 393.353,-752.973"/>
</g>
<!-- t000101 -->
<g id="node47" class="node"><title>t000101</title>
<ellipse fill="none" stroke="black" cx="491" cy="-738" rx="42.7926" ry="18"/>
<text text-anchor="middle" x="491" y="-734.3" font-family="mono" font-size="14.00">cc 5 1</text>
</g>
<!-- t00010&#45;&#45;t000101 -->
<g id="edge46" class="edge"><title>t00010&#45;&#45;t000101</title>
<path fill="none" stroke="black" d="M491,-791.697C491,-780.846 491,-766.917 491,-756.104"/>
</g>
<!-- t000110 -->
<g id="node65" class="node"><title>t000110</title>
<ellipse fill="none" stroke="black" cx="684" cy="-738" rx="42.7926" ry="18"/>
<text text-anchor="middle" x="684" y="-734.3" font-family="mono" font-size="14.00">cc 1 1</text>
</g>
<!-- t00011&#45;&#45;t000110 -->
<g id="edge64" class="edge"><title>t00011&#45;&#45;t000110</title>
<path fill="none" stroke="black" d="M684,-791.697C684,-780.846 684,-766.917 684,-756.104"/>
</g>
<!-- t000111 -->
<g id="node66" class="node"><title>t000111</title>
<ellipse fill="none" stroke="black" cx="800" cy="-738" rx="48.1917" ry="18"/>
<text text-anchor="middle" x="800" y="-734.3" font-family="mono" font-size="14.00">cc &#45;4 2</text>
</g>
<!-- t00011&#45;&#45;t000111 -->
<g id="edge65" class="edge"><title>t00011&#45;&#45;t000111</title>
<path fill="none" stroke="black" d="M707.474,-794.834C727.335,-782.85 755.688,-765.74 775.762,-753.626"/>
</g>
<!-- t0001001 -->
<g id="node48" class="node"><title>t0001001</title>
<ellipse fill="none" stroke="black" cx="348" cy="-666" rx="27" ry="18"/>
<text text-anchor="middle" x="348" y="-662.3" font-family="mono" font-size="14.00">0</text>
</g>
<!-- t000100&#45;&#45;t0001001 -->
<g id="edge47" class="edge"><title>t000100&#45;&#45;t0001001</title>
<path fill="none" stroke="black" d="M363.916,-720.055C360.615,-709.049 356.329,-694.764 353.037,-683.789"/>
</g>
<!-- t0001010 -->
<g id="node49" class="node"><title>t0001010</title>
<ellipse fill="none" stroke="black" cx="436" cy="-666" rx="42.7926" ry="18"/>
<text text-anchor="middle" x="436" y="-662.3" font-family="mono" font-size="14.00">cc 5 0</text>
</g>
<!-- t000101&#45;&#45;t0001010 -->
<g id="edge48" class="edge"><title>t000101&#45;&#45;t0001010</title>
<path fill="none" stroke="black" d="M478.244,-720.765C469.485,-709.618 457.894,-694.865 449.069,-683.633"/>
</g>
<!-- t0001011 -->
<g id="node50" class="node"><title>t0001011</title>
<ellipse fill="none" stroke="black" cx="540" cy="-666" rx="42.7926" ry="18"/>
<text text-anchor="middle" x="540" y="-662.3" font-family="mono" font-size="14.00">cc 4 1</text>
</g>
<!-- t000101&#45;&#45;t0001011 -->
<g id="edge49" class="edge"><title>t000101&#45;&#45;t0001011</title>
<path fill="none" stroke="black" d="M502.612,-720.411C510.423,-709.252 520.678,-694.604 528.471,-683.47"/>
</g>
<!-- t00010101 -->
<g id="node51" class="node"><title>t00010101</title>
<ellipse fill="none" stroke="black" cx="421" cy="-594" rx="27" ry="18"/>
<text text-anchor="middle" x="421" y="-590.3" font-family="mono" font-size="14.00">0</text>
</g>
<!-- t0001010&#45;&#45;t00010101 -->
<g id="edge50" class="edge"><title>t0001010&#45;&#45;t00010101</title>
<path fill="none" stroke="black" d="M432.369,-648.055C430.045,-637.211 427.039,-623.183 424.702,-612.275"/>
</g>
<!-- t00010110 -->
<g id="node52" class="node"><title>t00010110</title>
<ellipse fill="none" stroke="black" cx="509" cy="-594" rx="42.7926" ry="18"/>
<text text-anchor="middle" x="509" y="-590.3" font-family="mono" font-size="14.00">cc 4 0</text>
</g>
<!-- t0001011&#45;&#45;t00010110 -->
<g id="edge51" class="edge"><title>t0001011&#45;&#45;t00010110</title>
<path fill="none" stroke="black" d="M532.496,-648.055C527.622,-637.049 521.295,-622.764 516.435,-611.789"/>
</g>
<!-- t00010111 -->
<g id="node53" class="node"><title>t00010111</title>
<ellipse fill="none" stroke="black" cx="613" cy="-594" rx="42.7926" ry="18"/>
<text text-anchor="middle" x="613" y="-590.3" font-family="mono" font-size="14.00">cc 3 1</text>
</g>
<!-- t0001011&#45;&#45;t00010111 -->
<g id="edge52" class="edge"><title>t0001011&#45;&#45;t00010111</title>
<path fill="none" stroke="black" d="M556.565,-649.116C568.512,-637.66 584.569,-622.263 596.501,-610.821"/>
</g>
<!-- t000101101 -->
<g id="node54" class="node"><title>t000101101</title>
<ellipse fill="none" stroke="black" cx="509" cy="-522" rx="27" ry="18"/>
<text text-anchor="middle" x="509" y="-518.3" font-family="mono" font-size="14.00">0</text>
</g>
<!-- t00010110&#45;&#45;t000101101 -->
<g id="edge53" class="edge"><title>t00010110&#45;&#45;t000101101</title>
<path fill="none" stroke="black" d="M509,-575.697C509,-564.846 509,-550.917 509,-540.104"/>
</g>
<!-- t000101110 -->
<g id="node55" class="node"><title>t000101110</title>
<ellipse fill="none" stroke="black" cx="605" cy="-522" rx="42.7926" ry="18"/>
<text text-anchor="middle" x="605" y="-518.3" font-family="mono" font-size="14.00">cc 3 0</text>
</g>
<!-- t00010111&#45;&#45;t000101110 -->
<g id="edge54" class="edge"><title>t00010111&#45;&#45;t000101110</title>
<path fill="none" stroke="black" d="M611.022,-575.697C609.782,-564.846 608.19,-550.917 606.955,-540.104"/>
</g>
<!-- t000101111 -->
<g id="node56" class="node"><title>t000101111</title>
<ellipse fill="none" stroke="black" cx="709" cy="-522" rx="42.7926" ry="18"/>
<text text-anchor="middle" x="709" y="-518.3" font-family="mono" font-size="14.00">cc 2 1</text>
</g>
<!-- t00010111&#45;&#45;t000101111 -->
<g id="edge55" class="edge"><title>t00010111&#45;&#45;t000101111</title>
<path fill="none" stroke="black" d="M633.359,-578.155C649.541,-566.356 672.079,-549.921 688.339,-538.065"/>
</g>
<!-- t0001011101 -->
<g id="node57" class="node"><title>t0001011101</title>
<ellipse fill="none" stroke="black" cx="605" cy="-450" rx="27" ry="18"/>
<text text-anchor="middle" x="605" y="-446.3" font-family="mono" font-size="14.00">0</text>
</g>
<!-- t000101110&#45;&#45;t0001011101 -->
<g id="edge56" class="edge"><title>t000101110&#45;&#45;t0001011101</title>
<path fill="none" stroke="black" d="M605,-503.697C605,-492.846 605,-478.917 605,-468.104"/>
</g>
<!-- t0001011110 -->
<g id="node58" class="node"><title>t0001011110</title>
<ellipse fill="none" stroke="black" cx="697" cy="-450" rx="42.7926" ry="18"/>
<text text-anchor="middle" x="697" y="-446.3" font-family="mono" font-size="14.00">cc 2 0</text>
</g>
<!-- t000101111&#45;&#45;t0001011110 -->
<g id="edge57" class="edge"><title>t000101111&#45;&#45;t0001011110</title>
<path fill="none" stroke="black" d="M706.034,-503.697C704.174,-492.846 701.786,-478.917 699.932,-468.104"/>
</g>
<!-- t0001011111 -->
<g id="node59" class="node"><title>t0001011111</title>
<ellipse fill="none" stroke="black" cx="801" cy="-450" rx="42.7926" ry="18"/>
<text text-anchor="middle" x="801" y="-446.3" font-family="mono" font-size="14.00">cc 1 1</text>
</g>
<!-- t000101111&#45;&#45;t0001011111 -->
<g id="edge58" class="edge"><title>t000101111&#45;&#45;t0001011111</title>
<path fill="none" stroke="black" d="M728.963,-505.811C744.394,-494.07 765.655,-477.893 781.076,-466.159"/>
</g>
<!-- t00010111101 -->
<g id="node60" class="node"><title>t00010111101</title>
<ellipse fill="none" stroke="black" cx="697" cy="-378" rx="27" ry="18"/>
<text text-anchor="middle" x="697" y="-374.3" font-family="mono" font-size="14.00">0</text>
</g>
<!-- t0001011110&#45;&#45;t00010111101 -->
<g id="edge59" class="edge"><title>t0001011110&#45;&#45;t00010111101</title>
<path fill="none" stroke="black" d="M697,-431.697C697,-420.846 697,-406.917 697,-396.104"/>
</g>
<!-- t00010111110 -->
<g id="node61" class="node"><title>t00010111110</title>
<ellipse fill="none" stroke="black" cx="785" cy="-378" rx="42.7926" ry="18"/>
<text text-anchor="middle" x="785" y="-374.3" font-family="mono" font-size="14.00">cc 1 0</text>
</g>
<!-- t0001011111&#45;&#45;t00010111110 -->
<g id="edge60" class="edge"><title>t0001011111&#45;&#45;t00010111110</title>
<path fill="none" stroke="black" d="M797.127,-432.055C794.648,-421.211 791.442,-407.183 788.949,-396.275"/>
</g>
<!-- t00010111111 -->
<g id="node62" class="node"><title>t00010111111</title>
<ellipse fill="none" stroke="black" cx="889" cy="-378" rx="42.7926" ry="18"/>
<text text-anchor="middle" x="889" y="-374.3" font-family="mono" font-size="14.00">cc 0 1</text>
</g>
<!-- t0001011111&#45;&#45;t00010111111 -->
<g id="edge61" class="edge"><title>t0001011111&#45;&#45;t00010111111</title>
<path fill="none" stroke="black" d="M820.095,-433.811C834.855,-422.07 855.191,-405.893 869.943,-394.159"/>
</g>
<!-- t000101111101 -->
<g id="node63" class="node"><title>t000101111101</title>
<ellipse fill="none" stroke="black" cx="785" cy="-306" rx="27" ry="18"/>
<text text-anchor="middle" x="785" y="-302.3" font-family="mono" font-size="14.00">0</text>
</g>
<!-- t00010111110&#45;&#45;t000101111101 -->
<g id="edge62" class="edge"><title>t00010111110&#45;&#45;t000101111101</title>
<path fill="none" stroke="black" d="M785,-359.697C785,-348.846 785,-334.917 785,-324.104"/>
</g>
<!-- t000101111110 -->
<g id="node64" class="node"><title>t000101111110</title>
<ellipse fill="none" stroke="black" cx="889" cy="-306" rx="27" ry="18"/>
<text text-anchor="middle" x="889" y="-302.3" font-family="mono" font-size="14.00">1</text>
</g>
<!-- t00010111111&#45;&#45;t000101111110 -->
<g id="edge63" class="edge"><title>t00010111111&#45;&#45;t000101111110</title>
<path fill="none" stroke="black" d="M889,-359.697C889,-348.846 889,-334.917 889,-324.104"/>
</g>
<!-- t0001100 -->
<g id="node67" class="node"><title>t0001100</title>
<ellipse fill="none" stroke="black" cx="664" cy="-666" rx="42.7926" ry="18"/>
<text text-anchor="middle" x="664" y="-662.3" font-family="mono" font-size="14.00">cc 1 0</text>
</g>
<!-- t000110&#45;&#45;t0001100 -->
<g id="edge66" class="edge"><title>t000110&#45;&#45;t0001100</title>
<path fill="none" stroke="black" d="M679.159,-720.055C676.06,-709.211 672.052,-695.183 668.936,-684.275"/>
</g>
<!-- t0001101 -->
<g id="node68" class="node"><title>t0001101</title>
<ellipse fill="none" stroke="black" cx="768" cy="-666" rx="42.7926" ry="18"/>
<text text-anchor="middle" x="768" y="-662.3" font-family="mono" font-size="14.00">cc 0 1</text>
</g>
<!-- t000110&#45;&#45;t0001101 -->
<g id="edge67" class="edge"><title>t000110&#45;&#45;t0001101</title>
<path fill="none" stroke="black" d="M702.642,-721.465C716.563,-709.865 735.502,-694.082 749.41,-682.492"/>
</g>
<!-- t0001111 -->
<g id="node71" class="node"><title>t0001111</title>
<ellipse fill="none" stroke="black" cx="856" cy="-666" rx="27" ry="18"/>
<text text-anchor="middle" x="856" y="-662.3" font-family="mono" font-size="14.00">0</text>
</g>
<!-- t000111&#45;&#45;t0001111 -->
<g id="edge70" class="edge"><title>t000111&#45;&#45;t0001111</title>
<path fill="none" stroke="black" d="M813.271,-720.411C822.457,-708.929 834.599,-693.751 843.591,-682.511"/>
</g>
<!-- t00011001 -->
<g id="node69" class="node"><title>t00011001</title>
<ellipse fill="none" stroke="black" cx="701" cy="-594" rx="27" ry="18"/>
<text text-anchor="middle" x="701" y="-590.3" font-family="mono" font-size="14.00">0</text>
</g>
<!-- t0001100&#45;&#45;t00011001 -->
<g id="edge68" class="edge"><title>t0001100&#45;&#45;t00011001</title>
<path fill="none" stroke="black" d="M672.957,-648.055C678.86,-636.887 686.547,-622.343 692.381,-611.307"/>
</g>
<!-- t00011010 -->
<g id="node70" class="node"><title>t00011010</title>
<ellipse fill="none" stroke="black" cx="773" cy="-594" rx="27" ry="18"/>
<text text-anchor="middle" x="773" y="-590.3" font-family="mono" font-size="14.00">1</text>
</g>
<!-- t0001101&#45;&#45;t00011010 -->
<g id="edge69" class="edge"><title>t0001101&#45;&#45;t00011010</title>
<path fill="none" stroke="black" d="M769.236,-647.697C770.011,-636.846 771.006,-622.917 771.778,-612.104"/>
</g>
<!-- t00100 -->
<g id="node74" class="node"><title>t00100</title>
<ellipse fill="none" stroke="black" cx="953" cy="-810" rx="42.7926" ry="18"/>
<text text-anchor="middle" x="953" y="-806.3" font-family="mono" font-size="14.00">cc 1 1</text>
</g>
<!-- t0010&#45;&#45;t00100 -->
<g id="edge73" class="edge"><title>t0010&#45;&#45;t00100</title>
<path fill="none" stroke="black" d="M970.432,-864.055C966.869,-853.211 962.26,-839.183 958.676,-828.275"/>
</g>
<!-- t00101 -->
<g id="node75" class="node"><title>t00101</title>
<ellipse fill="none" stroke="black" cx="1062" cy="-810" rx="48.1917" ry="18"/>
<text text-anchor="middle" x="1062" y="-806.3" font-family="mono" font-size="14.00">cc &#45;4 2</text>
</g>
<!-- t0010&#45;&#45;t00101 -->
<g id="edge74" class="edge"><title>t0010&#45;&#45;t00101</title>
<path fill="none" stroke="black" d="M995.086,-865.465C1009.24,-853.945 1028.46,-838.301 1042.67,-826.734"/>
</g>
<!-- t00111 -->
<g id="node81" class="node"><title>t00111</title>
<ellipse fill="none" stroke="black" cx="1155" cy="-810" rx="27" ry="18"/>
<text text-anchor="middle" x="1155" y="-806.3" font-family="mono" font-size="14.00">0</text>
</g>
<!-- t0011&#45;&#45;t00111 -->
<g id="edge80" class="edge"><title>t0011&#45;&#45;t00111</title>
<path fill="none" stroke="black" d="M1136.81,-864.055C1140.58,-853.049 1145.48,-838.764 1149.24,-827.789"/>
</g>
<!-- t001000 -->
<g id="node76" class="node"><title>t001000</title>
<ellipse fill="none" stroke="black" cx="912" cy="-738" rx="42.7926" ry="18"/>
<text text-anchor="middle" x="912" y="-734.3" font-family="mono" font-size="14.00">cc 1 0</text>
</g>
<!-- t00100&#45;&#45;t001000 -->
<g id="edge75" class="edge"><title>t00100&#45;&#45;t001000</title>
<path fill="none" stroke="black" d="M943.284,-792.411C936.843,-781.414 928.416,-767.027 921.931,-755.956"/>
</g>
<!-- t001001 -->
<g id="node77" class="node"><title>t001001</title>
<ellipse fill="none" stroke="black" cx="1016" cy="-738" rx="42.7926" ry="18"/>
<text text-anchor="middle" x="1016" y="-734.3" font-family="mono" font-size="14.00">cc 0 1</text>
</g>
<!-- t00100&#45;&#45;t001001 -->
<g id="edge76" class="edge"><title>t00100&#45;&#45;t001001</title>
<path fill="none" stroke="black" d="M967.612,-792.765C977.79,-781.456 991.307,-766.437 1001.47,-755.147"/>
</g>
<!-- t001011 -->
<g id="node80" class="node"><title>t001011</title>
<ellipse fill="none" stroke="black" cx="1104" cy="-738" rx="27" ry="18"/>
<text text-anchor="middle" x="1104" y="-734.3" font-family="mono" font-size="14.00">0</text>
</g>
<!-- t00101&#45;&#45;t001011 -->
<g id="edge79" class="edge"><title>t00101&#45;&#45;t001011</title>
<path fill="none" stroke="black" d="M1072.17,-792.055C1078.87,-780.887 1087.59,-766.343 1094.22,-755.307"/>
</g>
<!-- t0010001 -->
<g id="node78" class="node"><title>t0010001</title>
<ellipse fill="none" stroke="black" cx="928" cy="-666" rx="27" ry="18"/>
<text text-anchor="middle" x="928" y="-662.3" font-family="mono" font-size="14.00">0</text>
</g>
<!-- t001000&#45;&#45;t0010001 -->
<g id="edge77" class="edge"><title>t001000&#45;&#45;t0010001</title>
<path fill="none" stroke="black" d="M915.873,-720.055C918.352,-709.211 921.558,-695.183 924.051,-684.275"/>
</g>
<!-- t0010010 -->
<g id="node79" class="node"><title>t0010010</title>
<ellipse fill="none" stroke="black" cx="1016" cy="-666" rx="27" ry="18"/>
<text text-anchor="middle" x="1016" y="-662.3" font-family="mono" font-size="14.00">1</text>
</g>
<!-- t001001&#45;&#45;t0010010 -->
<g id="edge78" class="edge"><title>t001001&#45;&#45;t0010010</title>
<path fill="none" stroke="black" d="M1016,-719.697C1016,-708.846 1016,-694.917 1016,-684.104"/>
</g>
</g>
</svg>
